# xmcd
#
# Track frame offsets: 
#        150
#        14785
#        31665
#        36620
#        50222
#        59950
#        66592
#        82100
#        100830
#        127340
#        137110
#        153782
#        160505
#        170282
#        203647
#
# Disc length: 3082 seconds
#
# Revision: 1
# Processed by: cddbd v1.5.2PL0 Copyright (c) Steve Scherf et al.
# Submitted via: ExactAudioCopy v0.99pb5
#
DISCID=e00c080f
DTITLE=Barrelhouse Chuck - Slowdown Sundown
DYEAR=2006
DGENRE=Blues
TTITLE0=I Keep On Drinking
TTITLE1=Mt. St. Helens Blues
TTITLE2=B3 Boogie For Steve Winwood
TTITLE3=Searching For My Baby
TTITLE4=Viola's Stomp
TTITLE5=Iza Mae
TTITLE6=Depression Blues #2
TTITLE7=What's Wrong
TTITLE8=You Told Me Baby
TTITLE9=Ain't Got Nop Money Now
TTITLE10=Ain't Nobody's Business
TTITLE11=Nutty Boogie
TTITLE12=Walk Don't Run 69
TTITLE13=B.B.Q. Girl (Live)
TTITLE14=Gigilo
EXTD=
EXTT0=
EXTT1=
EXTT2=
EXTT3=
EXTT4=
EXTT5=
EXTT6=
EXTT7=
EXTT8=
EXTT9=
EXTT10=
EXTT11=
EXTT12=
EXTT13=
EXTT14=
PLAYORDER=
